<svg xmlns="http://www.w3.org/2000/svg" id="Layer_1" x="0px" y="0px" viewBox="0 0 51 51" xml:space="preserve" class="service-icon"><g><path d="M25.5,7.9c0.9,0,1.7-0.8,1.7-1.7V2.7c0-0.9-0.8-1.7-1.7-1.7s-1.7,0.8-1.7,1.7v3.5C23.8,7.2,24.6,7.9,25.5,7.9z"/><path d="M7.1,26.3c0-0.9-0.8-1.7-1.7-1.7H1.9c-0.9,0-1.7,0.8-1.7,1.7S0.9,28,1.9,28h3.5C6.3,28,7.1,27.3,7.1,26.3z"/><path d="M8.3,13.2c0.3,0.3,0.8,0.5,1.2,0.5s0.9-0.2,1.2-0.5c0.7-0.7,0.7-1.8,0-2.5L8.2,8.2c-0.7-0.7-1.8-0.7-2.5,0S5,10,5.7,10.7 L8.3,13.2z"/><path d="M49.1,24.6h-3.5c-0.9,0-1.7,0.8-1.7,1.7s0.8,1.7,1.7,1.7h3.5c0.9,0,1.7-0.8,1.7-1.7S50.1,24.6,49.1,24.6z"/><path d="M41.5,13.7c0.4,0,0.9-0.2,1.2-0.5l2.5-2.5c0.7-0.7,0.7-1.8,0-2.5s-1.8-0.7-2.5,0l-2.5,2.5c-0.7,0.7-0.7,1.8,0,2.5 C40.6,13.5,41.1,13.7,41.5,13.7z"/><path d="M42.2,26.3C42,17.1,34.7,9.7,25.5,9.6C16.3,9.7,9,17.1,8.8,26.3c-0.1,6,3.1,11.5,8.2,14.5v4.1c0,2.8,2.3,5.1,5.1,5.1h6.8 c2.8,0,5.1-2.3,5.1-5.1v-4.1C39,37.8,42.3,32.3,42.2,26.3z M28.9,46.6h-6.8c-0.9,0-1.7-0.8-1.7-1.7v-3.4h10.1v3.4 C30.6,45.8,29.8,46.6,28.9,46.6z M31.9,38.1H19c-4.2-2.3-6.9-6.9-6.9-11.7c0.1-7.4,6-13.3,13.3-13.4c7.4,0.1,13.2,6,13.4,13.4 C38.9,31.2,36.2,35.8,31.9,38.1z"/><path d="M32.3,19.7c-0.6,0-1.1,0.2-1.5,0.5l-2.6-1.9c0-0.1,0-0.3,0-0.4c0-1.5-1.2-2.7-2.7-2.7s-2.7,1.2-2.7,2.7 c0,0.5,0.1,0.9,0.3,1.2L20,22.3c-0.4-0.2-0.8-0.4-1.3-0.4c-1.5,0-2.7,1.2-2.7,2.7s1.2,2.7,2.7,2.7s2.7-1.2,2.7-2.7 c0-0.5-0.1-0.9-0.3-1.3l3-3.2c0.4,0.2,0.9,0.4,1.4,0.4c0.8,0,1.5-0.4,2-0.9l2.3,1.6c-0.1,0.3-0.2,0.7-0.2,1.1 c0,1.5,1.2,2.7,2.7,2.7c1.5,0,2.7-1.2,2.7-2.7S33.8,19.7,32.3,19.7z M18.7,26c-0.7,0-1.3-0.6-1.3-1.3s0.6-1.3,1.3-1.3 S20,24,20,24.7S19.4,26,18.7,26z M25.5,19.2c-0.7,0-1.3-0.6-1.3-1.3s0.6-1.3,1.3-1.3s1.3,0.6,1.3,1.3S26.2,19.2,25.5,19.2z  M32.3,23.7c-0.7,0-1.3-0.6-1.3-1.3s0.6-1.3,1.3-1.3c0.7,0,1.3,0.6,1.3,1.3S33,23.7,32.3,23.7z"/><path d="M20.2,28.7h-3.1c-0.3,0-0.5,0.2-0.5,0.5v5c0,0.3,0.2,0.5,0.5,0.5h3.1c0.3,0,0.5-0.2,0.5-0.5v-5 C20.7,28.9,20.5,28.7,20.2,28.7z"/><path d="M26.8,22.7h-2.7c-0.4,0-0.6,0.3-0.6,0.7V34c0,0.4,0.3,0.7,0.6,0.7h2.7c0.4,0,0.6-0.3,0.6-0.7V23.4 C27.4,22.9,27.3,22.7,26.8,22.7z"/><path d="M33.8,26.7h-2.9c-0.3,0-0.5,0.3-0.5,0.6v6.9c0,0.3,0.2,0.6,0.5,0.6h2.9c0.3,0,0.5-0.3,0.5-0.6v-6.9 C34.3,26.9,34.1,26.7,33.8,26.7z"/></g><path d="M27.4,23.4"/></svg>